<?xml version="1.0" encoding="utf-8"?>
<!-- Generator: Adobe Illustrator 20.0.0, SVG Export Plug-In . SVG Version: 6.00 Build 0)  -->
<svg version="1.1" id="Layer_1" xmlns="http://www.w3.org/2000/svg" xmlns:xlink="http://www.w3.org/1999/xlink" x="0px" y="0px"
	 viewBox="0 0 960 560" style="enable-background:new 0 0 960 560;" xml:space="preserve">
<style type="text/css">
	.st0{clip-path:url(#SVGID_2_);fill:#592C5F;}
	.st1{clip-path:url(#SVGID_4_);fill:#592C5F;}
	.st2{clip-path:url(#SVGID_6_);fill:#592C5F;}
	.st3{clip-path:url(#SVGID_8_);fill:#592C5F;}
	.st4{clip-path:url(#SVGID_10_);fill:#592C5F;}
	.st5{clip-path:url(#SVGID_12_);fill:#592C5F;}
	.st6{clip-path:url(#SVGID_14_);fill:#592C5F;}
	.st7{clip-path:url(#SVGID_16_);fill:#592C5F;}
	.st8{clip-path:url(#SVGID_18_);fill:#592C5F;}
	.st9{clip-path:url(#SVGID_20_);fill:#592C5F;}
	.st10{clip-path:url(#SVGID_22_);fill:#592C5F;}
	.st11{clip-path:url(#SVGID_24_);fill:#592C5F;}
	.st12{clip-path:url(#SVGID_26_);fill:#592C5F;}
	.st13{clip-path:url(#SVGID_28_);fill:#592C5F;}
	.st14{clip-path:url(#SVGID_30_);fill:#592C5F;}
	.st15{clip-path:url(#SVGID_32_);fill:#592C5F;}
	.st16{clip-path:url(#SVGID_34_);fill:#592C5F;}
	.st17{clip-path:url(#SVGID_36_);fill:#592C5F;}
	.st18{clip-path:url(#SVGID_38_);fill:#592C5F;}
	.st19{clip-path:url(#SVGID_40_);fill:#592C5F;}
	.st20{clip-path:url(#SVGID_42_);fill:#592C5F;}
	.st21{clip-path:url(#SVGID_44_);fill:#592C5F;}
	.st22{clip-path:url(#SVGID_46_);fill:#592C5F;}
	.st23{clip-path:url(#SVGID_48_);fill:#592C5F;}
	.st24{fill:#592C5F;}
	.st25{clip-path:url(#SVGID_50_);fill:#FFFFFF;}
	.st26{clip-path:url(#SVGID_52_);fill:#FFFFFF;}
	.st27{clip-path:url(#SVGID_54_);fill:#FFFFFF;}
	.st28{clip-path:url(#SVGID_56_);fill:#FFFFFF;}
	.st29{clip-path:url(#SVGID_58_);fill:#FFFFFF;}
	.st30{clip-path:url(#SVGID_60_);fill:#FFFFFF;}
	.st31{clip-path:url(#SVGID_62_);fill:#FFFFFF;}
	.st32{clip-path:url(#SVGID_64_);fill:#FFFFFF;}
	.st33{clip-path:url(#SVGID_66_);fill:#FFFFFF;}
	.st34{font-family:'Georgia';}
	.st35{font-size:33.3184px;}
</style>
<g>
	<g>
		<defs>
			<rect id="SVGID_1_" x="-326.7" y="378.8" width="1610.7" height="2145.6"/>
		</defs>
		<clipPath id="SVGID_2_">
			<use xlink:href="#SVGID_1_"  style="overflow:visible;"/>
		</clipPath>
		<path class="st0" d="M298.2,490.3h-1.4v-39.2h9c2.6,0,6-0.1,10.3-0.4c0,0.6,0,1.5,0,2.5c0,0.6,0,1.7,0.1,3.3
			c0.1,1.8,0.1,2.8,0.1,2.8v1h-0.8c-0.7-4.5-2.7-6.7-6.1-6.7h-7c-0.8,0-1.5,0.1-2.1,0.3c-0.3,2-0.5,4.6-0.5,7.8v7.7h6.3
			c2.7,0,4.7-0.3,6-1c1.2-0.7,2-1.9,2.4-3.6h0.8c-0.2,2.7-0.3,4.5-0.3,5.5c0,0.6,0,1.7,0.1,3.2c0.1,1.4,0.1,2.4,0.1,3v1.2h-0.8
			c-0.1-3.9-2.2-5.9-6.1-5.9h-8.6v8.6c0,5.6,1.7,8.8,5,9.5v0.7C301.3,490.5,299.1,490.3,298.2,490.3 M294,451.1v39.2
			c-2.1,0-4.6,0.1-7.6,0.4V490c1.7-0.5,2.9-1.6,3.6-3.2s1.1-4.1,1.1-7.7v-18.4c0-3.4-0.4-5.7-1.3-7.1c-0.9-1.3-2-2.1-3.4-2.5v-0.7
			C289,450.9,291.5,451.1,294,451.1"/>
	</g>
	<g>
		<defs>
			<rect id="SVGID_3_" x="-326.7" y="378.8" width="1610.7" height="2145.6"/>
		</defs>
		<clipPath id="SVGID_4_">
			<use xlink:href="#SVGID_3_"  style="overflow:visible;"/>
		</clipPath>
		<path class="st1" d="M327.6,490.3v-27.4c2.1,0,3.9-0.1,5.6-0.3v0.5c-1,0.2-1.8,0.7-2.5,1.7s-1,2.9-1,5.9V483
			c0,2.7,0.4,4.5,1.1,5.4s1.5,1.5,2.4,1.7v0.5C331.6,490.4,329.7,490.3,327.6,490.3 M325.7,462.9v27.4c-1.2,0-3.1,0.1-5.5,0.3v-0.5
			c1.3-0.3,2.2-1.1,2.7-2.3c0.5-1.1,0.8-3.2,0.8-6.2V470c0-2.3-0.3-3.9-0.8-5c-0.5-1-1.4-1.7-2.7-2v-0.5
			C322.2,462.8,324.1,462.9,325.7,462.9"/>
	</g>
	<g>
		<defs>
			<rect id="SVGID_5_" x="-326.7" y="378.8" width="1610.7" height="2145.6"/>
		</defs>
		<clipPath id="SVGID_6_">
			<use xlink:href="#SVGID_5_"  style="overflow:visible;"/>
		</clipPath>
		<path class="st2" d="M370.3,486L344,462.9h3l21.3,18.6v-10.8c0-1.8-0.1-3.2-0.4-4.2c-0.2-0.9-0.7-1.7-1.4-2.3
			c-0.7-0.6-1.7-1-2.8-1.2v-0.5c0,0,0.3,0,0.9,0.1c2.2,0.2,3.7,0.2,4.5,0.2c0.7,0,2.5-0.1,5.2-0.3v0.5c-0.9,0.1-1.6,0.5-2.3,1.1
			c-0.6,0.6-1.1,1.3-1.3,2.2c-0.2,0.9-0.4,2.1-0.4,3.7L370.3,486L370.3,486z M341.2,462.9l29.1,25.6v2.1h-0.5l-22.9-20.1v12.1
			c0,2.6,0.3,4.5,1,5.5s1.7,1.7,3.1,2v0.5c-2.5-0.2-4.3-0.3-5.2-0.3c-1,0-2.6,0.1-4.7,0.3v-0.5c1.5-0.3,2.4-1,3-2.1
			c0.5-1.1,0.8-2.9,0.8-5.6v-13.6l-1.8-1.6c-2.5-2.2-4.7-3.6-6.4-4.2v-0.5L341.2,462.9z"/>
	</g>
	<g>
		<defs>
			<rect id="SVGID_7_" x="-326.7" y="378.8" width="1610.7" height="2145.6"/>
		</defs>
		<clipPath id="SVGID_8_">
			<use xlink:href="#SVGID_7_"  style="overflow:visible;"/>
		</clipPath>
		<path class="st3" d="M401.8,490.3L389,462.9h2.5c0.3,0.9,0.8,2,1.4,3.4c0.7,1.5,1.1,2.4,1.1,2.6c0.1,0.2,0.2,0.3,0.2,0.5l5.9,12.7
			c2.1,4.4,4.3,7.1,6.6,8v0.5C404.6,490.4,402.9,490.3,401.8,490.3 M383.8,477.2h7.6l-3.7-7.9L383.8,477.2z M394.6,484l-2.3-4.8
			h-9.5l-2.4,4.8l-0.1,0.3c0,0-0.1,0.3-0.4,0.8c-0.4,0.7-0.5,1.5-0.5,2.2c0,1.3,0.7,2.3,2.1,2.8v0.5c-0.3,0-0.8,0-1.5-0.1
			c-1-0.1-1.9-0.2-2.7-0.2c-0.7,0-1.6,0.1-2.7,0.2c-0.7,0.1-1.2,0.1-1.4,0.1v-0.5c1.9-1,3.5-3,5.1-6l8.4-16.8
			c-0.6-1.3-1.5-2.4-2.6-3.1s-2.4-1.1-3.9-1.2v-0.5h0.9c0.8,0,1.9,0.1,3.3,0.2c1.5,0.1,2.4,0.2,2.8,0.2l12.8,27.4
			c-1.6,0-3.6,0.1-5.9,0.3v-0.5c1.3-0.2,1.9-0.9,1.9-2.1C395.8,487.1,395.4,485.8,394.6,484"/>
	</g>
	<g>
		<defs>
			<rect id="SVGID_9_" x="-326.7" y="378.8" width="1610.7" height="2145.6"/>
		</defs>
		<clipPath id="SVGID_10_">
			<use xlink:href="#SVGID_9_"  style="overflow:visible;"/>
		</clipPath>
		<path class="st4" d="M437,486l-26.3-23.1h3l21.3,18.6v-10.8c0-1.8-0.1-3.2-0.4-4.2c-0.2-0.9-0.7-1.7-1.4-2.3
			c-0.7-0.6-1.7-1-2.8-1.2v-0.5c0,0,0.3,0,0.9,0.1c2.2,0.2,3.7,0.2,4.5,0.2c0.7,0,2.5-0.1,5.2-0.3v0.5c-0.9,0.1-1.6,0.5-2.3,1.1
			c-0.6,0.6-1.1,1.3-1.3,2.2c-0.2,0.9-0.4,2.1-0.4,3.7L437,486L437,486z M407.9,462.9l29.1,25.6v2.1h-0.5l-22.9-20.1v12.1
			c0,2.6,0.3,4.5,1,5.5s1.7,1.7,3.1,2v0.5c-2.5-0.2-4.3-0.3-5.2-0.3c-1,0-2.6,0.1-4.7,0.3v-0.5c1.5-0.3,2.4-1,3-2.1
			c0.5-1.1,0.8-2.9,0.8-5.6v-13.6l-1.8-1.6c-2.5-2.2-4.7-3.6-6.4-4.2v-0.5L407.9,462.9z"/>
	</g>
	<g>
		<defs>
			<rect id="SVGID_11_" x="-326.7" y="378.8" width="1610.7" height="2145.6"/>
		</defs>
		<clipPath id="SVGID_12_">
			<use xlink:href="#SVGID_11_"  style="overflow:visible;"/>
		</clipPath>
		<path class="st5" d="M467.2,484.7h0.5l-0.8,4.4c-1.6,0.6-3.1,1.1-4.5,1.4c-1.5,0.3-2.9,0.4-4.2,0.4c-4.1,0-7.3-1.2-9.6-3.7
			c-2.3-2.4-3.5-6-3.5-10.6s1.2-8.1,3.7-10.6c2.5-2.4,5.7-3.6,9.8-3.6c2.9,0,5.9,0.5,8.9,1.6c-0.1,2.2-0.2,3.5-0.2,3.9s0,0.7,0,1.1
			v0.6c0,0.9,0,1.8-0.1,2.6h-0.4c-1-5.2-4-7.9-8.7-7.9c-3.2,0-5.8,1.1-7.7,3.3c-1.9,2.2-2.9,5.3-2.9,9.3c0,3.6,0.9,6.4,2.7,8.7
			c1.8,2.2,4.4,3.3,7.9,3.3c2,0,3.7-0.4,5.4-1.2C465,486.9,466.3,485.9,467.2,484.7 M446.2,466.6c-1.9,2.5-2.9,5.9-2.9,10.2
			c0,5,1.2,8.7,3.6,11.2c-1.8-0.8-3.2-2.2-4.3-4.2c-1.1-2-1.6-4.3-1.6-6.9c0-1.8,0.3-3.4,0.8-4.8c0.5-1.5,1.1-2.6,1.9-3.4
			C444.4,467.8,445.2,467.1,446.2,466.6"/>
	</g>
	<g>
		<defs>
			<rect id="SVGID_13_" x="-326.7" y="378.8" width="1610.7" height="2145.6"/>
		</defs>
		<clipPath id="SVGID_14_">
			<use xlink:href="#SVGID_13_"  style="overflow:visible;"/>
		</clipPath>
		<path class="st6" d="M477.1,490.3v-27.4c2.1,0,3.9-0.1,5.6-0.3v0.5c-1,0.2-1.8,0.7-2.5,1.7s-1,2.9-1,5.9V483
			c0,2.7,0.4,4.5,1.1,5.4s1.5,1.5,2.4,1.7v0.5C481.1,490.4,479.3,490.3,477.1,490.3 M475.2,462.9v27.4c-1.2,0-3.1,0.1-5.5,0.3v-0.5
			c1.3-0.3,2.2-1.1,2.7-2.3c0.5-1.1,0.8-3.2,0.8-6.2V470c0-2.3-0.3-3.9-0.8-5c-0.5-1-1.4-1.7-2.7-2v-0.5
			C471.8,462.8,473.6,462.9,475.2,462.9"/>
	</g>
	<g>
		<defs>
			<rect id="SVGID_15_" x="-326.7" y="378.8" width="1610.7" height="2145.6"/>
		</defs>
		<clipPath id="SVGID_16_">
			<use xlink:href="#SVGID_15_"  style="overflow:visible;"/>
		</clipPath>
		<path class="st7" d="M514.4,490.3l-12.8-27.4h2.5c0.3,0.9,0.8,2,1.4,3.4c0.7,1.5,1.1,2.4,1.1,2.6c0.1,0.2,0.2,0.3,0.2,0.5
			l5.9,12.7c2.1,4.4,4.3,7.1,6.6,8v0.5C517.1,490.4,515.4,490.3,514.4,490.3 M496.3,477.2h7.6l-3.7-7.9L496.3,477.2z M507.1,484
			l-2.3-4.8h-9.5l-2.4,4.8l-0.1,0.3c0,0-0.1,0.3-0.4,0.8c-0.4,0.7-0.5,1.5-0.5,2.2c0,1.3,0.7,2.3,2.1,2.8v0.5c-0.3,0-0.8,0-1.5-0.1
			c-1-0.1-1.9-0.2-2.7-0.2c-0.7,0-1.6,0.1-2.7,0.2c-0.7,0.1-1.2,0.1-1.4,0.1v-0.5c1.9-1,3.5-3,5.1-6l8.4-16.8
			c-0.6-1.3-1.5-2.4-2.6-3.1s-2.4-1.1-3.9-1.2v-0.5h0.9c0.8,0,1.9,0.1,3.3,0.2s2.4,0.2,2.8,0.2l12.8,27.4c-1.6,0-3.6,0.1-5.9,0.3
			v-0.5c1.3-0.2,1.9-0.9,1.9-2.1C508.4,487.1,507.9,485.8,507.1,484"/>
	</g>
	<g>
		<defs>
			<rect id="SVGID_17_" x="-326.7" y="378.8" width="1610.7" height="2145.6"/>
		</defs>
		<clipPath id="SVGID_18_">
			<use xlink:href="#SVGID_17_"  style="overflow:visible;"/>
		</clipPath>
		<path class="st8" d="M540.7,490.3H529v-27.4c1.1,0,2.4-0.1,3.8-0.2c1.3-0.1,1.9-0.1,1.8-0.1v0.5c-1.3,0.3-2.2,1-2.8,2.1
			c-0.5,1.1-0.8,2.6-0.8,4.7v11.3c0,1.7,0.1,3.2,0.2,4.6c0.2,1.4,0.3,2.2,0.5,2.4c0.2,0.2,0.7,0.3,1.5,0.3h5.3
			c1.9,0,3.4-0.3,4.7-0.9c1.2-0.6,2.3-1.8,3.2-3.6h0.5c-0.1,0.8-0.5,2.2-1.1,4c-0.4,1.1-0.7,2.1-0.8,2.8
			C543.7,490.4,542.2,490.3,540.7,490.3 M521.8,462.6l5.3,0.3v27.4h-1.6c-1,0-2.2,0.1-3.8,0.3v-0.5c1.2-0.5,2.1-1.3,2.6-2.4
			s0.7-2.9,0.7-5.4v-12.4c0-2.7-0.3-4.4-1-5.3s-1.4-1.4-2.2-1.6V462.6z"/>
	</g>
	<g>
		<defs>
			<rect id="SVGID_19_" x="-326.7" y="378.8" width="1610.7" height="2145.6"/>
		</defs>
		<clipPath id="SVGID_20_">
			<use xlink:href="#SVGID_19_"  style="overflow:visible;"/>
		</clipPath>
		<path class="st9" d="M590.8,473c2.6-2.8,3.9-6.1,3.9-10c0-4.1-1.3-7.6-3.9-10.6c4.8,2,7.3,5.4,7.3,10.3
			C598.1,467.4,595.7,470.9,590.8,473 M574.4,462.6v8.1c1.7,0.7,3.4,1.1,5.3,1.1c3.1,0,5.3-0.9,6.9-2.6c1.5-1.8,2.3-3.9,2.3-6.5
			c0-2.7-0.8-4.9-2.3-6.7c-1.5-1.8-3.9-2.7-7.1-2.7c-1.8,0-3.1,0.3-3.9,0.9C574.8,454.7,574.4,457.5,574.4,462.6 M574.1,490.3h-2.6
			v-39.2c0.6,0,1.1,0,1.4,0c1.4,0,2.7-0.1,4-0.3c0.8-0.1,1.8-0.1,2.8-0.1c4.3,0,7.4,1.2,9.5,3.5c2,2.3,3,5.2,3,8.7s-1.1,6.4-3.3,8.5
			c-2.2,2.2-5,3.2-8.6,3.2c-2,0-3.9-0.3-5.9-1v6.6c0,3.2,0.4,5.6,1.3,7.2c0.9,1.6,2.3,2.5,4.3,2.8v0.7c-1-0.1-2.3-0.3-3.8-0.3
			L574.1,490.3z M568.8,451.1v39.2h-1.2c-1.5,0-3.8,0.1-6.9,0.4V490c1.3-0.1,2.4-0.9,3.5-2.2c1.1-1.3,1.6-4.1,1.6-8.2v-18.1
			c0-3.4-0.4-5.9-1.1-7.3c-0.7-1.4-2.1-2.4-3.9-2.9v-0.7C564,450.9,566.7,451.1,568.8,451.1"/>
	</g>
	<g>
		<defs>
			<rect id="SVGID_21_" x="-326.7" y="378.8" width="1610.7" height="2145.6"/>
		</defs>
		<clipPath id="SVGID_22_">
			<use xlink:href="#SVGID_21_"  style="overflow:visible;"/>
		</clipPath>
		<path class="st10" d="M622.6,490.3l-12.8-27.4h2.5c0.3,0.9,0.8,2,1.4,3.4c0.7,1.5,1.1,2.4,1.1,2.6c0.1,0.2,0.2,0.3,0.2,0.5
			l5.9,12.7c2.1,4.4,4.3,7.1,6.6,8v0.5C625.3,490.4,623.7,490.3,622.6,490.3 M604.5,477.2h7.6l-3.7-7.9L604.5,477.2z M615.3,484
			l-2.3-4.8h-9.5l-2.4,4.8l-0.1,0.3c0,0-0.1,0.3-0.4,0.8c-0.4,0.7-0.5,1.5-0.5,2.2c0,1.3,0.7,2.3,2.1,2.8v0.5c-0.3,0-0.8,0-1.5-0.1
			c-1-0.1-1.9-0.2-2.7-0.2c-0.7,0-1.6,0.1-2.7,0.2c-0.7,0.1-1.2,0.1-1.4,0.1v-0.5c1.9-1,3.5-3,5.1-6l8.4-16.8
			c-0.6-1.3-1.5-2.4-2.6-3.1s-2.4-1.1-3.9-1.2v-0.5h0.9c0.8,0,1.9,0.1,3.3,0.2c1.5,0.1,2.4,0.2,2.8,0.2l12.8,27.4
			c-1.6,0-3.6,0.1-5.9,0.3v-0.5c1.3-0.2,1.9-0.9,1.9-2.1C616.6,487.1,616.2,485.8,615.3,484"/>
	</g>
	<g>
		<defs>
			<rect id="SVGID_23_" x="-326.7" y="378.8" width="1610.7" height="2145.6"/>
		</defs>
		<clipPath id="SVGID_24_">
			<use xlink:href="#SVGID_23_"  style="overflow:visible;"/>
		</clipPath>
		<path class="st11" d="M650.9,475.7c1.1-1.8,1.6-3.8,1.6-5.9c0-2-0.6-3.9-1.9-5.9c2.9,1.3,4.3,3.3,4.3,6
			C655,472.6,653.6,474.5,650.9,475.7 M639.4,470v5.6c1,0.3,2.1,0.4,3.2,0.4c3.8,0,5.7-2,5.7-6.1c0-3.8-1.9-5.7-5.6-5.7
			c-1.2,0-2.2,0.3-2.8,0.8C639.6,465.7,639.4,467.4,639.4,470 M638.1,490.3h-0.7v-27.4c1,0,2.1,0,3.2-0.1c1.3-0.1,2.4-0.2,3.2-0.2
			c2.3,0,4,0.7,5.2,2.2c1.1,1.4,1.7,3.2,1.7,5.3c0,3.6-1.5,5.9-4.4,6.9c1.5,0.2,2.7,0.7,3.7,1.4c1.1,0.7,2.7,2.2,4.8,4.5
			c3.3,3.4,6,5.2,8,5.2c0.4,0,0.8-0.1,1.3-0.4l0.1,0.5c-0.7,0.9-1.6,1.4-2.8,1.4c-1.3,0-2.6-0.5-4-1.5c-1.3-0.9-3.3-2.8-5.9-5.5
			c-3.1-3.3-6.2-5-9.2-5c1.8,0.6,4.3,2.6,7.5,6c2.2,2.4,4,4.1,5.3,5.2s2.6,1.6,3.9,1.6v0.2c-0.6,0.2-1.1,0.3-1.7,0.3
			c-1.6,0-3.1-0.4-4.3-1.3c-0.6-0.5-1.5-1.2-2.4-2.1c-1-1-2.2-2.2-3.6-3.7c-2-2.2-3.5-3.7-4.5-4.5s-2.1-1.4-3.1-1.7v6.2
			c0,4.1,1.2,6.4,3.6,6.8v0.5C641.1,490.4,639.4,490.3,638.1,490.3 M635.5,462.9v27.4h-1.1c-0.4,0-1.1,0.1-2,0.2
			c-0.8,0.1-1.7,0.2-2.7,0.2v-0.5c1.1-0.1,2-0.7,2.7-1.6c0.7-1,1.1-2.8,1.1-5.6v-13.4c0-3.8-1.2-5.9-3.7-6.5v-0.5
			C630.8,462.7,632.7,462.8,635.5,462.9"/>
	</g>
	<g>
		<defs>
			<rect id="SVGID_25_" x="-326.7" y="378.8" width="1610.7" height="2145.6"/>
		</defs>
		<clipPath id="SVGID_26_">
			<use xlink:href="#SVGID_25_"  style="overflow:visible;"/>
		</clipPath>
		<path class="st12" d="M674.5,490.3h-0.7v-27.4h9.1c1.7,0,3.3-0.1,4.9-0.3c0,0.3,0,0.9-0.1,1.8c-0.1,0.8-0.1,1.8-0.1,3
			c0,0.8,0,1.5-0.1,2.3H687c0-1.4-0.4-2.6-1-3.5c-0.7-1-2.1-1.4-4.3-1.4H676v18.6c0,2.1,0.3,3.7,0.9,4.8c0.6,1.1,1.5,1.7,2.7,2v0.5
			C676.6,490.4,674.9,490.3,674.5,490.3 M663.6,462.9h8.3v27.4h-0.8c-1.1,0-2.7,0.1-4.9,0.3v-0.5c1.4-0.4,2.4-1.1,2.9-2.2
			s0.8-2.9,0.8-5.5v-17.8h-6.5c-1.6,0-2.8,0.3-3.5,1s-1.2,2-1.7,3.9h-0.6c0-0.2,0-0.5,0-0.7c0-0.3,0-0.8,0.1-1.3
			c0.2-1.9,0.3-3.5,0.3-5c0.9,0.1,2,0.2,3.3,0.2L663.6,462.9z"/>
	</g>
	<g>
		<defs>
			<rect id="SVGID_27_" x="-326.7" y="378.8" width="1610.7" height="2145.6"/>
		</defs>
		<clipPath id="SVGID_28_">
			<use xlink:href="#SVGID_27_"  style="overflow:visible;"/>
		</clipPath>
		<path class="st13" d="M723.5,486l-26.3-23.1h3l21.3,18.6v-10.8c0-1.8-0.1-3.2-0.4-4.2c-0.2-0.9-0.7-1.7-1.4-2.3
			c-0.7-0.6-1.7-1-2.8-1.2v-0.5c0,0,0.3,0,0.9,0.1c2.2,0.2,3.7,0.2,4.5,0.2c0.7,0,2.5-0.1,5.2-0.3v0.5c-0.9,0.1-1.6,0.5-2.3,1.1
			c-0.6,0.6-1.1,1.3-1.3,2.2c-0.2,0.9-0.4,2.1-0.4,3.7V486z M694.4,462.9l29.1,25.6v2.1H723l-22.9-20.1v12.1c0,2.6,0.3,4.5,1,5.5
			s1.7,1.7,3.1,2v0.5c-2.5-0.2-4.3-0.3-5.2-0.3c-1,0-2.6,0.1-4.6,0.3v-0.5c1.4-0.3,2.4-1,3-2.1c0.5-1.1,0.8-2.9,0.8-5.6v-13.6
			l-1.8-1.6c-2.5-2.2-4.7-3.6-6.4-4.2v-0.5L694.4,462.9z"/>
	</g>
	<g>
		<defs>
			<rect id="SVGID_29_" x="-326.7" y="378.8" width="1610.7" height="2145.6"/>
		</defs>
		<clipPath id="SVGID_30_">
			<use xlink:href="#SVGID_29_"  style="overflow:visible;"/>
		</clipPath>
		<path class="st14" d="M747.9,490.3h-10.1v-27.4h7.4c1.4,0,4-0.1,7.8-0.3c0,0.5-0.1,0.9-0.1,1.2c0,0.3,0,1.2,0.1,2.4
			c0.1,0.8,0.1,1.3,0.1,1.4v0.7h-0.4c-0.6-1.5-1.3-2.5-2.1-2.9s-2.2-0.6-4.4-0.6h-4c-0.6,0-1.2,0-1.8,0.1c-0.3,0.6-0.5,2-0.5,4.2
			l-0.1,1.8v4.2h5.5c2.1,0,3.4-0.2,4.1-0.5c0.7-0.4,1.2-1.2,1.6-2.6h0.6c-0.1,1.6-0.2,2.9-0.2,4.1c0,0.7,0.1,1.7,0.2,2.9
			c0,0.3,0.1,1,0.1,2.1h-0.6c-0.2-1.5-0.6-2.6-1.3-3.1c-0.8-0.6-2-0.9-3.6-0.9h-6.3v5.7c0,2.2,0.1,4.1,0.4,5.8
			c0.7,0.1,1.5,0.2,2.3,0.2h3.8c2.1,0,3.7-0.2,4.7-0.7c1.1-0.5,2.2-1.6,3.3-3.4h0.5c-0.2,0.8-0.5,1.7-0.8,2.8
			c-0.5,1.4-0.8,2.5-1,3.5C751.1,490.4,749.4,490.3,747.9,490.3 M735.1,462.9h0.8v27.4h-1.7c-0.6,0-1.8,0.1-3.7,0.3v-0.5
			c0.9-0.2,1.6-0.7,2.1-1.3c0.5-0.7,0.8-1.4,1-2.3s0.3-2.8,0.3-5.7v-10.9c0-2.5-0.3-4.2-1-5.2c-0.7-0.9-1.4-1.5-2.4-1.7v-0.5
			C731.5,462.6,733.1,462.8,735.1,462.9"/>
	</g>
	<g>
		<defs>
			<rect id="SVGID_31_" x="-326.7" y="378.8" width="1610.7" height="2145.6"/>
		</defs>
		<clipPath id="SVGID_32_">
			<use xlink:href="#SVGID_31_"  style="overflow:visible;"/>
		</clipPath>
		<path class="st15" d="M778.9,475.7c1.1-1.8,1.6-3.8,1.6-5.9c0-2-0.6-3.9-1.9-5.9c2.9,1.3,4.3,3.3,4.3,6
			C783,472.6,781.6,474.5,778.9,475.7 M767.4,470v5.6c1,0.3,2.1,0.4,3.2,0.4c3.8,0,5.7-2,5.7-6.1c0-3.8-1.9-5.7-5.6-5.7
			c-1.2,0-2.2,0.3-2.8,0.8C767.6,465.7,767.4,467.4,767.4,470 M766,490.3h-0.7v-27.4c1,0,2.1,0,3.2-0.1c1.3-0.1,2.4-0.2,3.2-0.2
			c2.3,0,4,0.7,5.2,2.2c1.1,1.4,1.7,3.2,1.7,5.3c0,3.6-1.5,5.9-4.4,6.9c1.5,0.2,2.7,0.7,3.7,1.4c1.1,0.7,2.7,2.2,4.8,4.5
			c3.3,3.4,6,5.2,8,5.2c0.4,0,0.8-0.1,1.3-0.4l0.1,0.5c-0.7,0.9-1.6,1.4-2.8,1.4c-1.3,0-2.6-0.5-4-1.5c-1.3-0.9-3.3-2.8-5.9-5.5
			c-3.1-3.3-6.2-5-9.2-5c1.8,0.6,4.3,2.6,7.5,6c2.2,2.4,4,4.1,5.3,5.2s2.6,1.6,3.9,1.6v0.2c-0.6,0.2-1.1,0.3-1.7,0.3
			c-1.6,0-3.1-0.4-4.3-1.3c-0.6-0.5-1.5-1.2-2.4-2.1c-1-1-2.2-2.2-3.6-3.7c-2-2.2-3.5-3.7-4.5-4.5s-2.1-1.4-3.1-1.7v6.2
			c0,4.1,1.2,6.4,3.6,6.8v0.5C769,490.4,767.4,490.3,766,490.3 M763.5,462.9v27.4h-1.1c-0.4,0-1.1,0.1-2,0.2
			c-0.8,0.1-1.7,0.2-2.7,0.2v-0.5c1.1-0.1,2-0.7,2.7-1.6c0.7-1,1.1-2.8,1.1-5.6v-13.4c0-3.8-1.3-5.9-3.7-6.5v-0.5
			C758.7,462.7,760.7,462.8,763.5,462.9"/>
	</g>
	<g>
		<defs>
			<rect id="SVGID_33_" x="-326.7" y="378.8" width="1610.7" height="2145.6"/>
		</defs>
		<clipPath id="SVGID_34_">
			<use xlink:href="#SVGID_33_"  style="overflow:visible;"/>
		</clipPath>
		<path class="st16" d="M812.1,470.4h-0.5c0-2-0.8-3.5-2.3-4.5s-3.3-1.4-5.5-1.4c-1.7,0-3.1,0.4-4.2,1.1c-1.1,0.7-1.7,1.6-1.7,2.7
			s0.4,2,1.3,2.6c0.9,0.7,2.7,1.5,5.4,2.5c2.5,0.9,4.2,1.6,5.2,2.2c1.1,0.6,1.9,1.5,2.7,2.6c0.7,1.2,1.1,2.5,1.1,3.9
			c0,2.2-0.8,3.9-2.3,5.1c0.6-0.8,0.9-2,0.9-3.4s-0.3-2.6-0.9-3.7c-0.7-1.1-1.5-2-2.4-2.6c-1-0.7-2.6-1.4-4.8-2.1
			c-3.3-1.1-5.5-2.1-6.5-2.9s-1.5-2.1-1.5-3.8c0-2,0.8-3.5,2.3-4.7c1.6-1.1,3.8-1.6,6.6-1.6c1.9,0,4.3,0.3,7.1,1v0.2l0.1,1
			c0,0.5,0,1.1,0.1,1.9c0,0.9,0.1,1.7,0.1,2.3C812.2,469.2,812.2,469.7,812.1,470.4 M794.3,481.3h0.6c0.1,2.2,1,4.1,2.6,5.5
			s3.4,2.1,5.5,2.1c1.6,0,2.9-0.5,3.9-1.4s1.5-2,1.5-3.3c0-1.4-0.5-2.4-1.4-3.1s-2.8-1.6-5.5-2.5c-2.2-0.7-3.8-1.4-4.7-1.8
			c-1.1-0.6-1.9-1.3-2.5-2.3c-0.7-1-1-2.1-1-3.3c0-1.4,0.4-2.7,1.3-4c-0.2,0.7-0.3,1.3-0.3,1.8c0,1.4,0.3,2.5,0.9,3.6
			c0.6,1.1,1.4,1.9,2.4,2.4c0.9,0.6,2.5,1.2,4.7,1.9c2.9,0.9,5,1.9,6.2,3s1.8,2.5,1.8,4.3s-0.6,3.3-1.9,4.8
			c-1.3,1.4-3.2,2.2-5.8,2.2c-1,0-2.5-0.2-4.3-0.6c-1.6-0.3-2.8-0.5-3.6-0.5l-0.2-0.2c0-0.3,0-0.7,0-1.1c0-0.6-0.1-1.4-0.2-2.6
			c-0.1-1.2-0.1-2-0.1-2.6C794.2,482.5,794.2,481.8,794.3,481.3"/>
	</g>
	<g>
		<defs>
			<rect id="SVGID_35_" x="-326.7" y="378.8" width="1610.7" height="2145.6"/>
		</defs>
		<clipPath id="SVGID_36_">
			<use xlink:href="#SVGID_35_"  style="overflow:visible;"/>
		</clipPath>
		<path class="st17" d="M212.4,461.9h-0.7c0-2.8-1.1-4.9-3.2-6.2c-2.1-1.3-4.6-2-7.6-2c-2.4,0-4.3,0.5-5.8,1.5s-2.3,2.3-2.3,3.7
			c0,1.5,0.6,2.8,1.8,3.6c1.3,1,3.8,2.1,7.5,3.4c3.5,1.2,5.9,2.2,7.3,3c1.5,0.8,2.7,2,3.7,3.6s1.5,3.4,1.5,5.4c0,3-1.1,5.4-3.2,7.1
			c0.8-1.1,1.2-2.7,1.2-4.8c0-1.9-0.4-3.6-1.3-5.1c-0.9-1.5-2-2.7-3.4-3.6s-3.6-1.9-6.6-2.9c-4.6-1.6-7.6-2.9-9-4s-2.1-2.9-2.1-5.3
			c0-2.7,1.1-4.9,3.2-6.5c2.2-1.5,5.2-2.3,9.1-2.3c2.7,0,6,0.5,9.8,1.4v0.3l0.1,1.4c0,0.7,0,1.6,0.1,2.6c0.1,1.2,0.1,2.3,0.1,3.2
			C212.4,460.2,212.4,461,212.4,461.9 M187.6,477h0.8c0.2,3.1,1.4,5.6,3.6,7.6c2.2,2,4.7,3,7.6,3c2.2,0,4-0.6,5.4-1.9
			s2.1-2.8,2.1-4.6c0-1.9-0.7-3.3-2-4.4c-1.3-1-3.8-2.2-7.6-3.4c-3-1-5.2-1.9-6.5-2.6c-1.5-0.8-2.7-1.9-3.5-3.2
			c-0.9-1.4-1.4-2.9-1.4-4.6c0-1.9,0.6-3.8,1.9-5.6c-0.3,0.9-0.4,1.8-0.4,2.5c0,1.9,0.4,3.5,1.3,4.9c0.9,1.5,2,2.6,3.3,3.3
			c1.3,0.8,3.5,1.6,6.6,2.6c4,1.3,6.9,2.6,8.7,4.1c1.7,1.5,2.6,3.4,2.6,5.9c0,2.4-0.9,4.6-2.7,6.6s-4.5,3-8.1,3
			c-1.4,0-3.5-0.3-6-0.8c-2.2-0.5-3.9-0.7-5-0.8l-0.2-0.3c0-0.4,0-0.9,0-1.6c0-0.8-0.1-2-0.2-3.6c-0.1-1.6-0.2-2.8-0.2-3.6
			C187.5,478.6,187.5,477.7,187.6,477"/>
	</g>
	<g>
		<defs>
			<rect id="SVGID_37_" x="-326.7" y="378.8" width="1610.7" height="2145.6"/>
		</defs>
		<clipPath id="SVGID_38_">
			<use xlink:href="#SVGID_37_"  style="overflow:visible;"/>
		</clipPath>
		<path class="st18" d="M146.9,470.5c0-6.4,1.4-11.6,4.3-15.8c-2,1.4-3.8,3.4-5.3,5.9c-1.5,2.6-2.3,5.9-2.3,9.8
			c0,6.3,2.3,11.3,6.8,14.9c-1.7-2.9-2.7-5.8-3-8.5C147.1,474.2,146.9,472,146.9,470.5"/>
	</g>
	<g>
		<defs>
			<rect id="SVGID_39_" x="-326.7" y="378.8" width="1610.7" height="2145.6"/>
		</defs>
		<clipPath id="SVGID_40_">
			<use xlink:href="#SVGID_39_"  style="overflow:visible;"/>
		</clipPath>
		<path class="st19" d="M178.3,458c-0.1-1.2-0.1-2.9-0.1-5.2c-3.9-1.4-7.8-2.1-11.9-2.1c-11.2,0-16.8,6.9-16.8,20.6
			c0,3.2,0.3,5.9,1,8.3s1.7,4.4,3.1,5.9c2.8,3.1,6.4,4.6,11,4.6c2,0,4.3-0.4,6.8-1.3v5.1c0,3.3-0.3,5.9-1,8s-1.8,4-3.5,5.7
			c-1.7,1.8-3.8,3.3-6.4,4.6v0.5c3-0.4,6-1.6,8.2-3.5s3.7-4.1,4.4-6.7c0.7-2.5,1.1-5.8,1.1-9.9v-23.1c-0.4,0-1,0-1.6-0.1
			c-0.4,0-0.9-0.1-1.4-0.1c-1.5-0.1-2.7-0.2-3.6-0.2l0,0c0,0,0,0-0.1,0v0.6h0.1c2.4,0.6,3.6,2.5,3.6,6v4.9c0,2.1-0.2,3.6-0.6,4.4
			c-1.3,1.5-3.5,2.3-6.6,2.3c-7.7,0-11.6-5.7-11.6-17.1c0-11.2,4.5-16.8,13.6-16.8c2.9,0,5.5,0.7,7.6,2.2s3.4,3.5,4,6.1h0.7
			C178.4,460.3,178.4,459.1,178.3,458"/>
	</g>
	<g>
		<defs>
			<rect id="SVGID_41_" x="-326.7" y="378.8" width="1610.7" height="2145.6"/>
		</defs>
		<clipPath id="SVGID_42_">
			<use xlink:href="#SVGID_41_"  style="overflow:visible;"/>
		</clipPath>
		<path class="st20" d="M182.4,469.2v0.5c-1.5,0.3-2.6,0.9-3.1,1.8c-0.6,0.9-0.8,2.3-0.8,4.3v16.6c0,2.7,0.1,4.7,0.4,5.8
			c0.3,1.1,0.7,2.1,1.5,2.8c-1.4,0-2.5,0.2-3.2,0.6c-0.8,0.4-2.1,1.3-3.3,2.7c0.7-1.2,1.1-2.6,1.4-4.1c0.3-1.4,0.4-3.8,0.4-7.2
			v-23.5C177.3,469.5,179.7,469.4,182.4,469.2"/>
	</g>
	<g>
		<defs>
			<rect id="SVGID_43_" x="-326.7" y="378.8" width="1610.7" height="2145.6"/>
		</defs>
		<clipPath id="SVGID_44_">
			<use xlink:href="#SVGID_43_"  style="overflow:visible;"/>
		</clipPath>
		<path class="st21" d="M234,451v0.7c1.8,0.6,3.1,1.4,4,2.4s1.9,2.8,2.8,5.2l2.2,5.4l-5.4,12.5l-7.2-16.8c-1.1-2.7-1.7-4.6-1.7-5.9
			s0.7-2.2,2.2-2.8V451l-2.2,0.2l-1.5,0.1c-2.2,0.1-3.4,0.1-3.5,0.1l14,32.6l6.8-16l9,22h0.7l1.1-2.8l-14.6-35.9
			C238.5,451.4,236.3,451.3,234,451"/>
	</g>
	<g>
		<defs>
			<rect id="SVGID_45_" x="-326.7" y="378.8" width="1610.7" height="2145.6"/>
		</defs>
		<clipPath id="SVGID_46_">
			<use xlink:href="#SVGID_45_"  style="overflow:visible;"/>
		</clipPath>
		<path class="st22" d="M266.6,451.5c-1.2,0-3.1-0.1-5.7-0.4v0.7c2.1,0.5,3.1,1.9,3.1,4.1c0,1.7-0.6,4.1-1.9,7.2l-5.5,13.9
			l-6.5-16.2c-1.1-2.6-1.6-4.7-1.6-6c0-1.5,0.8-2.5,2.4-3V451c-2.1,0.2-4.6,0.3-7.5,0.4l13.2,32.5l8.5-21.2c1.5-3.7,2.7-6.3,3.7-7.7
			c1-1.3,2.3-2.5,3.9-3.5V451C270.8,451.3,268.7,451.5,266.6,451.5"/>
	</g>
	<g>
		<defs>
			<rect id="SVGID_47_" x="-326.7" y="378.8" width="1610.7" height="2145.6"/>
		</defs>
		<clipPath id="SVGID_48_">
			<use xlink:href="#SVGID_47_"  style="overflow:visible;"/>
		</clipPath>
		<path class="st23" d="M221.3,452.8l-0.6-1.3l0,0c-0.6-1.2-1.2-2.3-1.8-3.1c-1.5-1.9-3.5-3.2-5.9-4c-2.5-0.8-5-0.8-7.6-0.1
			l-0.3,0.4c2.6,0.1,4.9,0.6,6.8,1.4c2.7,1.2,3.9,3.2,4.6,4.1c1.2,1.6,2.3,3.6,3.4,6.3l2.4,5.4l12.1,28.2h0.6l1.2-2.8L222.3,455
			C222,454.3,221.7,453.5,221.3,452.8"/>
	</g>
</g>
<polygon class="st24" points="483.4,28.6 127.6,231.2 483.4,433.8 839.2,231.2 "/>
<g>
	<g>
		<defs>
			<rect id="SVGID_49_" x="-1519.4" y="-4642.8" width="4020.4" height="5202.8"/>
		</defs>
		<clipPath id="SVGID_50_">
			<use xlink:href="#SVGID_49_"  style="overflow:visible;"/>
		</clipPath>
		<path class="st25" d="M574.3,265.4h-2.9v-79h17.8c5.2,0,12-0.3,20.5-0.9c0,1.3-0.1,3-0.1,5.1c0,1.2,0.1,3.4,0.2,6.7
			c0.1,3.7,0.2,5.6,0.2,5.7v1.9h-1.5c-1.3-9-5.4-13.5-12.2-13.5h-13.9c-1.6,0-3,0.2-4.2,0.7c-0.6,3.9-0.9,9.2-0.9,15.8v15.5h12.6
			c5.4,0,9.4-0.7,11.9-2.1c2.4-1.4,4-3.8,4.7-7.3h1.6c-0.3,5.4-0.5,9.1-0.5,11.2c0,1.3,0.1,3.4,0.2,6.4c0.2,2.8,0.3,4.9,0.3,6.1v2.5
			h-1.6c-0.2-7.9-4.3-11.8-12.1-11.8h-17v17.4c0,11.3,3.3,17.7,9.9,19.1v1.3C580.3,265.7,576.1,265.4,574.3,265.4 M565.9,186.4v79
			c-4.2,0-9.2,0.3-15.1,0.9V265c3.3-1.1,5.7-3.2,7.1-6.4c1.4-3.1,2.2-8.3,2.2-15.4v-37c0-6.8-0.9-11.5-2.6-14.2
			c-1.8-2.6-4-4.3-6.7-4.9v-1.4C555.9,185.9,561,186.2,565.9,186.4"/>
	</g>
	<g>
		<defs>
			<rect id="SVGID_51_" x="-1519.4" y="-4642.8" width="4020.4" height="5202.8"/>
		</defs>
		<clipPath id="SVGID_52_">
			<use xlink:href="#SVGID_51_"  style="overflow:visible;"/>
		</clipPath>
		<path class="st26" d="M682.7,230.5c5.2-5.6,7.8-12.3,7.8-20.1c0-8.2-2.6-15.3-7.8-21.4c9.6,4.1,14.4,11,14.4,20.7
			C697.1,219.2,692.3,226.2,682.7,230.5 M650.1,209.5v16.3c3.3,1.4,6.8,2.2,10.6,2.2c6.1,0,10.6-1.8,13.6-5.2
			c3-3.5,4.5-7.9,4.5-13.2c0-5.4-1.5-10-4.5-13.6s-7.7-5.4-14.1-5.4c-3.5,0-6.1,0.6-7.8,1.7C650.9,193.6,650.1,199.3,650.1,209.5
			 M649.5,265.4h-5.2v-79c1.2,0,2.1,0,2.8-0.1c2.7-0.1,5.4-0.3,7.9-0.5c1.7-0.2,3.5-0.3,5.5-0.3c8.5,0,14.8,2.3,18.8,7
			s6,10.5,6,17.5c0,7.1-2.2,12.8-6.5,17.1c-4.4,4.3-10,6.5-17,6.5c-3.9,0-7.8-0.7-11.6-2.1v13.3c0,6.5,0.9,11.4,2.7,14.5
			c1.7,3.2,4.6,5.1,8.5,5.6v1.3c-2-0.3-4.5-0.5-7.5-0.7L649.5,265.4z M639,186.4v79h-2.4c-3.1,0-7.6,0.3-13.6,0.9V265
			c2.5-0.3,4.8-1.8,6.9-4.4c2.1-2.7,3.2-8.2,3.2-16.6v-36.5c0-7-0.7-11.9-2.2-14.8c-1.5-2.9-4.1-4.8-7.8-5.8v-1.4
			C629.3,186,634.7,186.3,639,186.4"/>
	</g>
	<g>
		<defs>
			<rect id="SVGID_53_" x="-1519.4" y="-4642.8" width="4020.4" height="5202.8"/>
		</defs>
		<clipPath id="SVGID_54_">
			<use xlink:href="#SVGID_53_"  style="overflow:visible;"/>
		</clipPath>
		<path class="st27" d="M422,207.6h-1.5c-0.1-5.7-2.2-9.9-6.5-12.6c-4.2-2.7-9.2-4-15.1-4c-4.7,0-8.6,1.1-11.6,3.2
			c-3.1,2.1-4.6,4.6-4.6,7.5c0,3.1,1.2,5.6,3.6,7.4c2.5,2,7.5,4.3,14.9,7c6.9,2.5,11.8,4.5,14.5,6.1c2.9,1.7,5.4,4.2,7.4,7.3
			c2,3.3,2.9,6.9,2.9,10.9c0,6.1-2.1,10.9-6.5,14.3c1.6-2.3,2.4-5.5,2.4-9.7c0-3.9-0.9-7.4-2.6-10.4c-1.8-3.1-4.1-5.5-6.7-7.3
			c-2.7-1.9-7.1-3.8-13.3-5.9c-9.2-3.2-15.2-5.9-18-8.1c-2.8-2.3-4.2-5.9-4.2-10.7c0-5.6,2.1-9.9,6.5-13.1
			c4.3-3.1,10.4-4.6,18.3-4.6c5.4,0,11.9,1,19.7,2.9v0.5l0.1,2.8c0,1.5,0,3.2,0.1,5.3c0.1,2.5,0.2,4.7,0.2,6.6
			C422.1,204.2,422,205.7,422,207.6 M372.5,238.2h1.6c0.3,6.2,2.7,11.4,7.2,15.4c4.4,4,9.4,6,15.1,6c4.4,0,8-1.3,10.7-3.9
			c2.8-2.6,4.1-5.7,4.1-9.3c0-3.8-1.3-6.8-4-8.9c-2.6-2-7.6-4.4-15.2-7c-6.1-2.1-10.4-3.8-13-5.2c-3-1.6-5.3-3.8-7-6.5
			c-1.8-2.8-2.7-5.9-2.7-9.4c0-3.9,1.2-7.6,3.7-11.4c-0.6,1.9-0.8,3.6-0.8,5c0,3.8,0.9,7.2,2.6,10c1.8,3,4,5.2,6.6,6.7
			c2.6,1.6,7,3.3,13.1,5.3c8,2.5,13.8,5.3,17.3,8.4c3.4,3,5.1,7,5.1,12c0,4.9-1.8,9.4-5.3,13.4c-3.6,4.1-9,6.1-16.1,6.1
			c-2.9,0-6.9-0.6-12.1-1.7c-4.5-1-7.9-1.5-10.1-1.5l-0.5-0.6c0-0.8,0.1-1.9,0.1-3.2c0-1.6-0.1-4-0.4-7.2c-0.2-3.3-0.4-5.7-0.4-7.3
			C372.2,241.5,372.3,239.7,372.5,238.2"/>
	</g>
	<g>
		<defs>
			<rect id="SVGID_55_" x="-1519.4" y="-4642.8" width="4020.4" height="5202.8"/>
		</defs>
		<clipPath id="SVGID_56_">
			<use xlink:href="#SVGID_55_"  style="overflow:visible;"/>
		</clipPath>
		<path class="st28" d="M291.1,225.2c0-12.9,2.9-23.6,8.6-32.1c-4.1,2.8-7.6,6.8-10.6,12.1c-3,5.4-4.6,12-4.6,19.8
			c0,12.8,4.5,22.9,13.6,30.3c-3.4-6-5.4-11.7-6-17.2C291.4,232.5,291.1,228.2,291.1,225.2"/>
	</g>
	<g>
		<defs>
			<rect id="SVGID_57_" x="-1519.4" y="-4642.8" width="4020.4" height="5202.8"/>
		</defs>
		<clipPath id="SVGID_58_">
			<use xlink:href="#SVGID_57_"  style="overflow:visible;"/>
		</clipPath>
		<path class="st29" d="M353.8,199.8c-0.1-2.4-0.2-5.9-0.2-10.5c-7.7-2.9-15.7-4.3-23.9-4.3c-22.4,0-33.6,14-33.6,41.9
			c0,6.4,0.7,12,2.1,16.8s3.4,8.8,6.2,12c5.6,6.2,12.9,9.4,21.9,9.4c4,0,8.6-0.9,13.7-2.6v10.3c0,6.6-0.7,12-2,16.2
			s-3.7,8.1-6.9,11.6c-3.3,3.6-7.6,6.7-12.9,9.3v1c6-0.8,12-3.2,16.4-7c4.4-3.9,7.3-8.4,8.8-13.6c1.5-5.1,2.2-11.8,2.2-20.1v-47
			c-0.8,0-2-0.1-3.2-0.1c-0.9-0.1-1.8-0.1-2.9-0.2c-3.1-0.2-5.5-0.3-7.2-0.4l0,0h-0.1v1.3c0.1,0,0.2,0.1,0.2,0.1
			c4.8,1.1,7.3,5.2,7.3,12.2v9.9c0,4.3-0.4,7.3-1.3,8.9c-2.6,3.1-6.9,4.6-13.1,4.6c-15.5,0-23.2-11.6-23.2-34.7
			c0-22.8,9.1-34.2,27.3-34.2c5.9,0,11,1.5,15.2,4.5s6.8,7.2,7.9,12.4h1.4C354,204.4,353.9,201.9,353.8,199.8"/>
	</g>
	<g>
		<defs>
			<rect id="SVGID_59_" x="-1519.4" y="-4642.8" width="4020.4" height="5202.8"/>
		</defs>
		<clipPath id="SVGID_60_">
			<use xlink:href="#SVGID_59_"  style="overflow:visible;"/>
		</clipPath>
		<path class="st30" d="M362,222.4v1.1c-3.1,0.6-5.2,1.8-6.3,3.6c-1.1,1.9-1.7,4.7-1.7,8.6v33.7c0,5.6,0.3,9.5,0.9,11.7
			c0.5,2.3,1.5,4.2,2.9,5.7c-2.8,0-4.9,0.4-6.4,1.1c-1.6,0.8-4.2,2.6-6.5,5.4c1.3-2.5,2.3-5.2,2.8-8.2c0.5-2.9,0.8-7.7,0.8-14.5V223
			C351.8,223.1,356.7,222.8,362,222.4"/>
	</g>
	<g>
		<defs>
			<rect id="SVGID_61_" x="-1519.4" y="-4642.8" width="4020.4" height="5202.8"/>
		</defs>
		<clipPath id="SVGID_62_">
			<use xlink:href="#SVGID_61_"  style="overflow:visible;"/>
		</clipPath>
		<path class="st31" d="M465.3,185.6v1.3c3.5,1.2,6.1,2.8,7.9,4.9c1.8,2.1,3.7,5.6,5.7,10.5l4.4,11l-10.7,25.4l-14.4-34.1
			c-2.3-5.4-3.4-9.4-3.4-12s1.5-4.5,4.4-5.7v-1.3l-4.5,0.4l-3.1,0.2c-4.4,0.2-6.7,0.2-7,0.3l28,66.2l13.5-32.4l18.1,44.7h1.5
			l2.2-5.7l-29.3-72.8C474.4,186.3,470,186.1,465.3,185.6"/>
	</g>
	<g>
		<defs>
			<rect id="SVGID_63_" x="-1519.4" y="-4642.8" width="4020.4" height="5202.8"/>
		</defs>
		<clipPath id="SVGID_64_">
			<use xlink:href="#SVGID_63_"  style="overflow:visible;"/>
		</clipPath>
		<path class="st32" d="M530.6,186.4c-2.4,0-6.2-0.3-11.4-0.9v1.3c4.1,1.1,6.2,3.9,6.2,8.4c0,3.4-1.2,8.3-3.7,14.6L510.6,238
			l-13.1-32.8c-2.1-5.4-3.2-9.4-3.2-12.2c0-3,1.6-5,4.8-6.1v-1.3c-4.3,0.3-9.2,0.6-14.9,0.9l26.5,66l17-43c3-7.5,5.5-12.7,7.5-15.6
			c1.9-2.7,4.5-5.1,7.8-7v-1.3C538.9,186.2,534.8,186.4,530.6,186.4"/>
	</g>
	<g>
		<defs>
			<rect id="SVGID_65_" x="-1519.4" y="-4642.8" width="4020.4" height="5202.8"/>
		</defs>
		<clipPath id="SVGID_66_">
			<use xlink:href="#SVGID_65_"  style="overflow:visible;"/>
		</clipPath>
		<path class="st33" d="M440,189.1l-1.1-2.7h-0.1c-1.2-2.5-2.3-4.7-3.6-6.3c-3-3.8-7-6.5-11.9-8.1s-10-1.6-15.1-0.1l-0.6,0.9
			c5.2,0.2,9.7,1.1,13.7,2.9c5.4,2.4,7.9,6.5,9.2,8.3c2.3,3.2,4.5,7.3,6.8,12.8l4.7,11l24.2,57.2h1.2l2.5-5.6L442,193.9
			C441.3,192.2,440.6,190.6,440,189.1"/>
	</g>
</g>
<text transform="matrix(1 0 0 1 238.1172 530.0283)" class="st24 st34 st35">www.GSWFinancialPartners.com</text>
</svg>
